<svg width="109" height="22" viewBox="0 0 109 22" fill="none" xmlns="http://www.w3.org/2000/svg">
<path fill-rule="evenodd" clip-rule="evenodd" d="M10.9999 0C4.92601 0 0 4.92601 0 11.0001C0 17.0741 4.92601 22 10.9999 22C17.0741 22 22 17.0743 22 11.0001H18.0469C18.0469 14.8913 14.8913 18.047 10.9999 18.047C7.10897 18.0469 3.9531 14.8913 3.9531 11.0001C3.9531 7.10897 7.10883 3.9531 10.9999 3.9531V0V0ZM14.3529 3.35284H18.6472V7.6471H14.3529V3.35284V3.35284Z" fill="black"/>
<path fill-rule="evenodd" clip-rule="evenodd" d="M32.9074 15.9554C33.6328 15.9525 34.2799 15.8689 34.8436 15.6987C35.4071 15.5312 35.9177 15.2914 36.3725 14.9843C36.83 14.6747 37.2595 14.3064 37.6613 13.8795L36.339 12.5405C36.0069 12.8555 35.675 13.1235 35.3402 13.3524C35.0053 13.5781 34.6455 13.754 34.2633 13.8767C33.8811 13.9996 33.4513 14.0639 32.9742 14.0639C32.4107 14.061 31.8944 13.9494 31.4232 13.7347C30.9545 13.5198 30.5443 13.2212 30.1984 12.8389C29.8551 12.4596 29.5875 12.0159 29.3949 11.5138C29.2052 11.0116 29.1104 10.4732 29.1074 9.89565V9.86202C29.1104 9.2846 29.2052 8.7462 29.3949 8.24953C29.5875 7.75016 29.8551 7.31223 30.1984 6.93561C30.5443 6.55601 30.9543 6.26326 31.4232 6.05111C31.8945 5.8391 32.4107 5.7304 32.9742 5.72742C33.4178 5.72742 33.8309 5.78886 34.2131 5.91175C34.5925 6.03152 34.9496 6.20167 35.2845 6.41936C35.6219 6.63704 35.9456 6.89091 36.2553 7.18367L37.5777 5.66058C37.2066 5.30056 36.8049 4.98255 36.3696 4.71193C35.9344 4.43847 35.4407 4.22377 34.891 4.07023C34.3385 3.91668 33.7053 3.83863 32.991 3.83594C32.2797 3.83863 31.6156 3.94194 30.999 4.14558C30.3851 4.34936 29.8273 4.63658 29.3306 5.0105C28.8342 5.38159 28.4071 5.81951 28.0529 6.32456C27.6985 6.82662 27.4251 7.38191 27.2355 7.98742C27.0458 8.58996 26.9508 9.22613 26.948 9.89565V9.92914C26.9508 10.6043 27.0485 11.2431 27.241 11.8484C27.4336 12.4511 27.7071 13.0036 28.0614 13.5029C28.4184 14.0051 28.8425 14.4377 29.3335 14.8031C29.8273 15.1686 30.3741 15.4503 30.9767 15.6513C31.5794 15.8521 32.221 15.9525 32.9074 15.9554L32.9074 15.9554Z" fill="black"/>
<path fill-rule="evenodd" clip-rule="evenodd" d="M42.6339 15.9386C43.0886 15.9359 43.4903 15.8633 43.8336 15.7212C44.1768 15.5789 44.4781 15.392 44.732 15.1576C44.9859 14.9233 45.2091 14.6639 45.3958 14.3819V15.7546H47.4214V6.91604H45.3958V11.9046C45.3931 12.3648 45.3094 12.7554 45.1393 13.0819C44.9718 13.4111 44.7402 13.6594 44.4416 13.8353C44.1432 14.008 43.7971 14.0947 43.4039 14.0974C42.7985 14.0947 42.3325 13.9048 42.0061 13.5339C41.6797 13.1599 41.5151 12.6298 41.5123 11.938V6.91602H39.4868V12.5406C39.4897 13.2296 39.6124 13.8294 39.8607 14.3373C40.1062 14.8451 40.4634 15.2356 40.932 15.5146C41.4007 15.7937 41.9672 15.9359 42.6339 15.9386V15.9386Z" fill="black"/>
<path fill-rule="evenodd" clip-rule="evenodd" d="M49.9655 15.754H51.9908V12.3894C51.9966 11.6082 52.1247 10.9581 52.3786 10.4392C52.6326 9.92319 52.9841 9.53522 53.4332 9.27581C53.8852 9.01924 54.407 8.89096 55.0039 8.89096L55.1211 8.89082V6.74802C54.6021 6.72858 54.1419 6.80663 53.74 6.98543C53.3383 7.16111 52.9923 7.41498 52.7023 7.74421C52.4121 8.07613 52.1751 8.4641 51.9907 8.90756V6.91547H49.9655V15.754V15.754Z" fill="black"/>
<path fill-rule="evenodd" clip-rule="evenodd" d="M59.6742 15.8215H61.4991L65.1147 6.91602H62.9888L60.5951 13.4111L58.218 6.91602H56.042L59.6742 15.8215Z" fill="black"/>
<path fill-rule="evenodd" clip-rule="evenodd" d="M70.3877 15.955C70.9289 15.9521 71.4198 15.8852 71.8607 15.7485C72.3014 15.6117 72.7003 15.4221 73.0547 15.1738C73.409 14.9254 73.7243 14.6352 74.0033 14.2978L72.8149 13.2431C72.5834 13.4719 72.3433 13.6645 72.1005 13.8207C71.858 13.9768 71.5983 14.0968 71.3248 14.1777C71.0488 14.2558 70.7474 14.2978 70.4209 14.2978C69.9831 14.2978 69.5868 14.2084 69.2297 14.0355C68.8727 13.8624 68.577 13.6087 68.3427 13.2766C68.1082 12.9419 67.952 12.5346 67.8766 12.0547H74.3716C74.38 11.9542 74.3885 11.8567 74.394 11.7645C74.4022 11.6695 74.4051 11.5776 74.4051 11.4855C74.4051 10.9749 74.3493 10.4839 74.2348 10.0152C74.1206 9.54376 73.9503 9.11123 73.7244 8.71218C73.4984 8.31626 73.2138 7.96745 72.8762 7.67172C72.536 7.37584 72.1425 7.14439 71.6904 6.98248C71.2386 6.81801 70.7335 6.73428 70.1699 6.73145C69.5367 6.73428 68.9563 6.85689 68.4291 7.09416C67.9018 7.33398 67.4471 7.66335 67.0621 8.08453C66.677 8.50571 66.3812 8.99415 66.1721 9.54929C65.9601 10.1044 65.8539 10.6989 65.8511 11.3349L65.8512 11.3683C65.8539 12.0517 65.9711 12.6766 66.1999 13.2349C66.4286 13.7954 66.7495 14.2782 67.1596 14.6855C67.5699 15.09 68.0496 15.4025 68.5992 15.6229C69.1462 15.8404 69.743 15.9521 70.3877 15.955L70.3877 15.955ZM67.8599 10.7153C67.9242 10.2551 68.0579 9.8507 68.2616 9.5019C68.4654 9.15309 68.7275 8.88247 69.0485 8.68706C69.3694 8.49194 69.7375 8.39147 70.1533 8.38878C70.5998 8.39147 70.9819 8.49748 71.2997 8.70111C71.6179 8.90475 71.8691 9.18374 72.0531 9.53255C72.2374 9.88121 72.3517 10.2747 72.3962 10.7153H67.8599L67.8599 10.7153Z" fill="black"/>
<path fill-rule="evenodd" clip-rule="evenodd" d="M80.3815 18.4659C81.1794 18.4659 81.8824 18.3682 82.4935 18.1728C83.1045 17.9777 83.6094 17.6791 84.0139 17.2774C84.3823 16.909 84.6613 16.4488 84.851 15.8937C85.0407 15.3412 85.1355 14.6912 85.1355 13.9461V6.9155H83.1101V8.23807C82.884 7.96192 82.6246 7.70791 82.3344 7.48185C82.0415 7.25579 81.7066 7.07458 81.3273 6.94076C80.9451 6.80396 80.5069 6.73428 80.0132 6.73145C79.6003 6.7313 79.1957 6.79289 78.8053 6.91294C78.4147 7.03271 78.0492 7.2084 77.7088 7.44013C77.3712 7.67158 77.0728 7.95625 76.8159 8.29384C76.5594 8.6286 76.3613 9.0136 76.2161 9.44896C76.0712 9.88121 75.9985 10.3611 75.9958 10.8829V10.9161C75.9987 11.4352 76.0712 11.9123 76.2133 12.342C76.3584 12.7743 76.5565 13.1567 76.8132 13.4915C77.0671 13.8289 77.3628 14.1109 77.7033 14.3423C78.0407 14.5739 78.4063 14.7496 78.7995 14.8697C79.1903 14.9897 79.5948 15.051 80.0132 15.051C80.4959 15.0482 80.9282 14.9785 81.3049 14.8419C81.6816 14.7049 82.0192 14.5155 82.3148 14.2727C82.6134 14.0299 82.884 13.748 83.1268 13.4272L83.127 14.1136C83.1241 15.0036 82.884 15.676 82.4069 16.1362C81.93 16.5937 81.238 16.8227 80.3312 16.8254C79.7315 16.8226 79.1734 16.7389 78.6573 16.5771C78.1412 16.4123 77.6502 16.1837 77.1843 15.8879L76.4311 17.4112C77.0031 17.7545 77.6221 18.0166 78.2862 18.1951C78.9532 18.3736 79.6505 18.4659 80.3815 18.4659L80.3815 18.4659ZM80.5489 13.3436C80.2001 13.3436 79.8737 13.2823 79.5696 13.1678C79.2684 13.0506 79.0004 12.8833 78.7717 12.6684C78.5429 12.4507 78.3644 12.1942 78.2361 11.8956C78.105 11.597 78.0407 11.2651 78.038 10.8997V10.8661C78.0407 10.5006 78.105 10.1686 78.2333 9.87299C78.3589 9.57442 78.5374 9.32054 78.7662 9.1057C78.9949 8.89369 79.26 8.72908 79.5641 8.61186C79.8682 8.49748 80.1946 8.43902 80.5488 8.43902C80.9033 8.43902 81.2351 8.49748 81.5477 8.61484C81.86 8.73177 82.1335 8.89922 82.3736 9.11407C82.6134 9.32878 82.8004 9.58832 82.9369 9.88675C83.0712 10.1853 83.1406 10.5174 83.1434 10.8829V10.9161C83.1407 11.2733 83.071 11.5997 82.9369 11.8956C82.8004 12.1913 82.6134 12.4479 82.3736 12.6629C82.1336 12.8804 81.86 13.0479 81.5477 13.1651C81.2352 13.2823 80.9031 13.3408 80.5489 13.3436L80.5489 13.3436Z" fill="black"/>
<path fill-rule="evenodd" clip-rule="evenodd" d="M87.6625 15.754H89.6878V12.3894C89.6936 11.6082 89.8219 10.9581 90.0757 10.4392C90.3296 9.92319 90.6811 9.53522 91.1303 9.27581C91.5822 9.01924 92.104 8.89096 92.7009 8.89096L92.8181 8.89082V6.74802C92.2993 6.72858 91.8388 6.80663 91.4371 6.98543C91.0355 7.16111 90.6893 7.41498 90.3993 7.74421C90.1091 8.07613 89.8721 8.4641 89.6878 8.90756V6.91547H87.6625V15.754V15.754Z" fill="black"/>
<path fill-rule="evenodd" clip-rule="evenodd" d="M94.6099 5.5589H96.786V3.63379H94.6099V5.5589ZM94.6934 15.7532H96.719V6.91467H94.6934V15.7532Z" fill="black"/>
<path fill-rule="evenodd" clip-rule="evenodd" d="M103.013 15.9381C103.493 15.9354 103.917 15.8601 104.288 15.7122C104.662 15.5672 104.991 15.3692 105.276 15.1207C105.561 14.8697 105.812 14.5907 106.026 14.2809V15.7541H108.052V3.53418H106.026V8.28833C105.817 8.0092 105.569 7.75533 105.287 7.52104C105.003 7.28377 104.676 7.09702 104.299 6.95185C103.926 6.80966 103.499 6.73431 103.013 6.73147C102.589 6.73133 102.177 6.79845 101.777 6.92673C101.376 7.05771 101.005 7.24758 100.659 7.50146C100.313 7.75533 100.009 8.06795 99.7492 8.43904C99.4871 8.80714 99.2832 9.234 99.1354 9.71662C98.9904 10.1967 98.9151 10.7322 98.9122 11.318V11.3517C98.9151 11.9375 98.9903 12.473 99.141 12.953C99.289 13.4357 99.4953 13.8599 99.7574 14.2307C100.023 14.6018 100.327 14.9144 100.673 15.1683C101.019 15.4193 101.392 15.6117 101.789 15.743C102.188 15.8713 102.595 15.9381 103.013 15.9381V15.9381ZM103.499 14.1805C103.153 14.1805 102.826 14.1109 102.522 13.9797C102.215 13.8458 101.948 13.656 101.71 13.4079C101.476 13.1594 101.292 12.861 101.158 12.515C101.024 12.1662 100.957 11.7785 100.954 11.3517V11.3181C100.957 10.8774 101.024 10.4839 101.155 10.1351C101.289 9.78645 101.473 9.48788 101.705 9.24522C101.939 8.99972 102.21 8.81269 102.514 8.68441C102.821 8.55598 103.15 8.48928 103.499 8.48928C103.842 8.48914 104.166 8.55612 104.472 8.69008C104.777 8.82404 105.05 9.01363 105.287 9.26197C105.527 9.51016 105.714 9.80873 105.851 10.1547C105.988 10.5035 106.057 10.8885 106.06 11.3181L106.06 11.3517C106.057 11.7756 105.987 12.1607 105.851 12.5067C105.714 12.8525 105.527 13.1511 105.287 13.3994C105.05 13.6504 104.777 13.843 104.472 13.9768C104.166 14.1109 103.842 14.1778 103.499 14.1805V14.1805Z" fill="black"/>
</svg>
